<?xml version="1.0" encoding="UTF-8"?>
<svg version="1.1" xmlns="http://www.w3.org/2000/svg" width="48" height="48">
<path d="M0 0 C15.84 0 31.68 0 48 0 C48 15.84 48 31.68 48 48 C32.16 48 16.32 48 0 48 C0 32.16 0 16.32 0 0 Z " fill="#F4CE13" transform="translate(0,0)"/>
<path d="M0 0 C2.27076842 -0.02699725 4.54162821 -0.04639453 6.8125 -0.0625 C8.70935547 -0.07990234 8.70935547 -0.07990234 10.64453125 -0.09765625 C14 0 14 0 17 1 C17 4.3 17 7.6 17 11 C18.98 11 20.96 11 23 11 C23 10.34 23 9.68 23 9 C22.01 8.67 21.02 8.34 20 8 C20.99 7.67 21.98 7.34 23 7 C23.66 7.99 24.32 8.98 25 10 C26.97747122 10.36297936 26.97747122 10.36297936 29.125 10.1875 C30.40375 10.125625 31.6825 10.06375 33 10 C33 10.66 33 11.32 33 12 C26.77165105 13.07127602 20.79878827 13.04380953 14.49609375 12.87304688 C10.06337346 12.80950873 7.13405917 13.27810747 3 15 C0.0625 13.25 0.0625 13.25 -3 11 C-6.2249208 9.75675853 -6.2249208 9.75675853 -9 9 C-9.042721 7.33388095 -9.04063832 5.66617115 -9 4 C-8 3 -8 3 -6.15234375 2.90234375 C-4.1015625 2.93489583 -2.05078125 2.96744792 0 3 C0 2.01 0 1.02 0 0 Z " fill="#6D803E" transform="translate(11,17)"/>
<path d="M0 0 C14.36842105 0 14.36842105 0 17.9375 2.1875 C19 4 19 4 18.8125 7.125 C18.544375 8.07375 18.27625 9.0225 18 10 C14.98675805 11.50662097 12.31713623 11.17770373 9 11 C8.34 10.34 7.68 9.68 7 9 C7 9.66 7 10.32 7 11 C5.02 11 3.04 11 1 11 C0.67 7.37 0.34 3.74 0 0 Z " fill="#C3B21C" transform="translate(27,17)"/>
<path d="M0 0 C0.33 0 0.66 0 1 0 C1 3.3 1 6.6 1 10 C2.98 10 4.96 10 7 10 C7 9.34 7 8.68 7 8 C6.01 7.67 5.02 7.34 4 7 C4.99 6.67 5.98 6.34 7 6 C7.99 7.485 7.99 7.485 9 9 C10.97747122 9.36297936 10.97747122 9.36297936 13.125 9.1875 C14.40375 9.125625 15.6825 9.06375 17 9 C17 9.66 17 10.32 17 11 C10.77165105 12.07127602 4.79878827 12.04380953 -1.50390625 11.87304688 C-5.81830729 11.8112047 -9.06208673 11.98359863 -13 14 C-13.99 13.01 -14.98 12.02 -16 11 C-15.67 10.34 -15.34 9.68 -15 9 C-12.03 9.495 -12.03 9.495 -9 10 C-8.67 9.34 -8.34 8.68 -8 8 C-7.67 8.33 -7.34 8.66 -7 9 C-5.00041636 9.04080783 -2.99954746 9.04254356 -1 9 C-2.65 8.67 -4.3 8.34 -6 8 C-5.67 6.35 -5.34 4.7 -5 3 C-3.68 3 -2.36 3 -1 3 C-0.67 2.01 -0.34 1.02 0 0 Z " fill="#596635" transform="translate(27,18)"/>
<path d="M0 0 C11.4 0 11.4 0 16 1 C16.33 1.66 16.66 2.32 17 3 C14.03 3 11.06 3 8 3 C8.020625 3.804375 8.04125 4.60875 8.0625 5.4375 C8 8 8 8 7 9 C7 9.66 7 10.32 7 11 C5.02 11 3.04 11 1 11 C0.67 7.37 0.34 3.74 0 0 Z " fill="#799752" transform="translate(27,17)"/>
<path d="M0 0 C0.94875 0.04125 1.8975 0.0825 2.875 0.125 C2.875 1.115 2.875 2.105 2.875 3.125 C1.555 3.125 0.235 3.125 -1.125 3.125 C-1.455 4.445 -1.785 5.765 -2.125 7.125 C-0.145 7.125 1.835 7.125 3.875 7.125 C3.545 7.785 3.215 8.445 2.875 9.125 C0 9.25 0 9.25 -3.125 9.125 C-5.125 7.125 -5.125 7.125 -5.375 4.625 C-4.98192433 0.69424327 -3.8631953 0.15452781 0 0 Z " fill="#EAC70C" transform="translate(23.125,18.875)"/>
<path d="M0 0 C2.64 0 5.28 0 8 0 C8.33 0.66 8.66 1.32 9 2 C10.32 2 11.64 2 13 2 C13.33 3.32 13.66 4.64 14 6 C12.58249437 5.88490339 11.16598831 5.75746342 9.75 5.625 C8.96109375 5.55539063 8.1721875 5.48578125 7.359375 5.4140625 C4.85521048 4.97458992 3.13042844 4.38572115 1 3 C0.67 2.01 0.34 1.02 0 0 Z " fill="#C8B216" transform="translate(4,22)"/>
<path d="M0 0 C2.12493141 -0.02693575 4.24995912 -0.04636628 6.375 -0.0625 C7.55835938 -0.07410156 8.74171875 -0.08570312 9.9609375 -0.09765625 C13 0 13 0 15 1 C14.67 1.66 14.34 2.32 14 3 C12.63875 2.9690625 12.63875 2.9690625 11.25 2.9375 C8.57327412 2.9889755 6.53011948 3.2215017 4 4 C4 4.66 4 5.32 4 6 C3.34 6 2.68 6 2 6 C0 3 0 3 0 0 Z " fill="#739A92" transform="translate(12,17)"/>
<path d="M0 0 C1.98 0 3.96 0 6 0 C6 0.66 6 1.32 6 2 C4.68 2 3.36 2 2 2 C2 2.66 2 3.32 2 4 C2.99 4 3.98 4 5 4 C5.33 5.65 5.66 7.3 6 9 C4.02 9 2.04 9 0 9 C0 6.03 0 3.06 0 0 Z " fill="#E2C00B" transform="translate(28,19)"/>
<path d="M0 0 C3 3.75 3 3.75 3 6 C3.66 6 4.32 6 5 6 C5 5.34 5 4.68 5 4 C5.66 4 6.32 4 7 4 C7 5.65 7 7.3 7 9 C6.67 8.34 6.34 7.68 6 7 C4.68 7 3.36 7 2 7 C1.67 7.66 1.34 8.32 1 9 C0.71125 8.360625 0.4225 7.72125 0.125 7.0625 C-0.82823451 4.84793921 -0.82823451 4.84793921 -3 4 C-2.01 4 -1.02 4 0 4 C0 2.68 0 1.36 0 0 Z " fill="#265A5E" transform="translate(11,17)"/>
<path d="M0 0 C0.99 0.99 1.98 1.98 3 3 C0.75 4.625 0.75 4.625 -2 6 C-4.3125 5.1875 -4.3125 5.1875 -6 4 C-6 3.01 -6 2.02 -6 1 C-3.03 1.495 -3.03 1.495 0 2 C0 1.34 0 0.68 0 0 Z " fill="#345D62" transform="translate(18,26)"/>
<path d="M0 0 C0.33 0.66 0.66 1.32 1 2 C-0.65 2.33 -2.3 2.66 -4 3 C-4.33 4.32 -4.66 5.64 -5 7 C-5.66 7 -6.32 7 -7 7 C-7 5.02 -7 3.04 -7 1 C-4.53721199 -0.231394 -2.7204945 -0.07159196 0 0 Z " fill="#EBC80A" transform="translate(42,19)"/>
<path d="M0 0 C0.94875 0.04125 1.8975 0.0825 2.875 0.125 C2.875 1.115 2.875 2.105 2.875 3.125 C0.895 3.125 -1.085 3.125 -3.125 3.125 C-3.785 4.445 -4.445 5.765 -5.125 7.125 C-5.25 4.75 -5.25 4.75 -5.125 2.125 C-3.125 0.125 -3.125 0.125 0 0 Z " fill="#D0B714" transform="translate(23.125,18.875)"/>
<path d="M0 0 C1.98 0.495 1.98 0.495 4 1 C3.67 2.32 3.34 3.64 3 5 C1.68 4.67 0.36 4.34 -1 4 C-0.67 2.68 -0.34 1.36 0 0 Z " fill="#74813A" transform="translate(38,21)"/>
<path d="M0 0 C2.97 0.495 2.97 0.495 6 1 C5.67 1.99 5.34 2.98 5 4 C3.35 4 1.7 4 0 4 C0 2.68 0 1.36 0 0 Z " fill="#949A37" transform="translate(21,22)"/>
<path d="M0 0 C1.32 0 2.64 0 4 0 C4.33 1.32 4.66 2.64 5 4 C3.02 4 1.04 4 -1 4 C-0.67 2.68 -0.34 1.36 0 0 Z " fill="#9AB2BC" transform="translate(13,24)"/>
</svg>
